# xmcd
# 
# Track frame offsets:
#     182
#     17427
#     51035
# 
# Disc length: 1060
# 
# Revision: 5
# Processed by: cddbd v1.5.2PL0 Copyright (c) Steve Scherf et al.
# Submitted via: fre:ac v1.0.17
# 
DISCID=17042203
DTITLE=The Supermen Lovers - Starlight
DYEAR=2001
DGENRE=Dance
TTITLE0=Starlight (Radio Edit)
TTITLE1=Starlight (Agent Sumo Supermagic Mix)
TTITLE2=Starlight (BHQ Rub)
EXTD=
EXTT0=
EXTT1=
EXTT2=
PLAYORDER=
